<svg width="160" height="56" viewBox="0 0 160 56" fill="none" xmlns="http://www.w3.org/2000/svg">
<g clip-path="url(#clip0)">
<path d="M147.259 0.000182H12.7486C12.2583 0.000182 11.7739 0.000182 11.2849 0.002982C10.8755 0.005782 10.4694 0.013916 10.0562 0.020762C9.15832 0.0318245 8.26261 0.114529 7.37678 0.268156C6.49221 0.425128 5.63534 0.721064 4.83516 1.14596C4.03596 1.57444 3.30571 2.13122 2.6709 2.79608C2.03276 3.45907 1.50082 4.2254 1.09553 5.06561C0.689129 5.90413 0.407328 6.8027 0.259861 7.73025C0.110992 8.65664 0.0308843 9.59371 0.0202567 10.5331C0.00784864 10.9623 0.0065383 11.393 0 11.8223V44.1822C0.0065383 44.6169 0.00784864 45.038 0.0202567 45.4729C0.0308876 46.4122 0.110995 47.3492 0.259861 48.2755C0.40692 49.2036 0.688739 50.1027 1.09553 50.9416C1.50063 51.779 2.03265 52.5423 2.6709 53.2016C3.30331 53.8694 4.03403 54.4266 4.83516 54.8518C5.63533 55.2778 6.49211 55.5755 7.37678 55.7349C8.26276 55.8873 9.15838 55.97 10.0562 55.9824C10.4694 55.9919 10.8755 55.9974 11.2849 55.9974C11.7739 56.0002 12.2583 56.0002 12.7486 56.0002H147.259C147.739 56.0002 148.227 56.0002 148.708 55.9974C149.115 55.9974 149.533 55.9919 149.941 55.9824C150.837 55.9707 151.731 55.8879 152.615 55.7349C153.502 55.5744 154.362 55.2767 155.166 54.8518C155.967 54.4263 156.697 53.8692 157.329 53.2016C157.965 52.5397 158.498 51.777 158.908 50.9416C159.312 50.1021 159.591 49.2031 159.736 48.2755C159.885 47.3491 159.968 46.4123 159.984 45.4729C159.99 45.038 159.99 44.6169 159.99 44.1822C160 43.6736 160 43.1678 160 42.6509V13.3508C160 12.8381 160 12.3295 159.99 11.8223C159.99 11.393 159.99 10.9623 159.984 10.533C159.968 9.59357 159.885 8.65671 159.736 7.7302C159.591 6.80318 159.312 5.90469 158.908 5.06555C158.083 3.38146 156.774 2.01062 155.166 1.14583C154.362 0.721976 153.502 0.426119 152.615 0.26803C151.731 0.113726 150.837 0.0309929 149.941 0.020566C149.533 0.013734 149.115 0.00553 148.708 0.0028C148.227 0 147.739 0 147.259 0V0.000182Z" fill="#A6A6A6"/>
<path d="M11.2921 54.7756C10.8847 54.7756 10.4872 54.7701 10.083 54.7606C9.24567 54.7492 8.41032 54.6729 7.58378 54.5323C6.81308 54.3933 6.06647 54.1348 5.3686 53.7652C4.67711 53.3987 4.04643 52.9182 3.5007 52.342C2.94707 51.7725 2.48615 51.1121 2.1362 50.3869C1.78239 49.6569 1.53754 48.8744 1.41017 48.0668C1.27261 47.1989 1.19819 46.3214 1.18754 45.4418C1.17907 45.1465 1.16797 44.1634 1.16797 44.1634V11.8227C1.16797 11.8227 1.17979 10.8547 1.18761 10.5703C1.19781 9.69206 1.2718 8.8159 1.40894 7.94941C1.53655 7.13954 1.78159 6.35483 2.13558 5.62247C2.48425 4.89771 2.94261 4.23679 3.4929 3.66534C4.04258 3.08846 4.67528 2.60543 5.36794 2.23388C6.06422 1.86552 6.80941 1.60881 7.57856 1.47236C8.40781 1.33036 9.24605 1.25358 10.0863 1.24268L11.2927 1.22559H148.702L149.923 1.24337C150.756 1.25372 151.586 1.32982 152.408 1.47099C153.185 1.60915 153.938 1.86765 154.642 2.23798C156.03 2.98677 157.159 4.17141 157.871 5.62588C158.219 6.35319 158.461 7.13149 158.587 7.93437C158.725 8.80797 158.803 9.69102 158.819 10.5765C158.823 10.9729 158.823 11.3988 158.823 11.8227C158.833 12.3477 158.833 12.8474 158.833 13.3512V42.6513C158.833 43.1599 158.833 43.6562 158.823 44.1566C158.823 44.6119 158.823 45.0289 158.818 45.4582C158.802 46.3278 158.726 47.1951 158.589 48.0531C158.464 48.8666 158.221 49.6551 157.867 50.3911C157.515 51.1085 157.056 51.7632 156.509 52.331C155.963 52.9103 155.331 53.3937 154.638 53.7625C153.936 54.1349 153.184 54.3944 152.408 54.5323C151.581 54.6736 150.746 54.7499 149.909 54.7606C149.517 54.7701 149.107 54.7756 148.709 54.7756L147.259 54.7784L11.2921 54.7756Z" fill="black"/>
<path d="M33.1172 28.4212C33.1315 27.2527 33.428 26.107 33.9789 25.0907C34.5298 24.0743 35.3173 23.2204 36.2681 22.6084C35.6641 21.7051 34.8672 20.9618 33.9409 20.4374C33.0145 19.9131 31.9841 19.6221 30.9316 19.5876C28.6863 19.3408 26.5096 20.9944 25.3655 20.9944C24.1992 20.9944 22.4376 19.6121 20.5406 19.653C19.3136 19.6945 18.1178 20.0681 17.0697 20.7374C16.0216 21.4066 15.157 22.3488 14.56 23.472C11.9741 28.1598 13.9029 35.0492 16.38 38.8385C17.6194 40.694 19.0678 42.7666 20.963 42.6931C22.8176 42.6126 23.5103 41.4548 25.749 41.4548C27.9668 41.4548 28.6167 42.6931 30.5504 42.6464C32.5405 42.6126 33.7943 40.7827 34.9902 38.9096C35.8806 37.5875 36.5658 36.1263 37.0204 34.5801C35.8642 34.0681 34.8776 33.211 34.1835 32.1158C33.4894 31.0206 33.1185 29.7357 33.1172 28.4212Z" fill="white"/>
<path d="M29.4659 17.0959C30.551 15.732 31.0855 13.9789 30.9561 12.209C29.2983 12.3913 27.767 13.2209 26.6673 14.5324C26.1296 15.1732 25.7178 15.9186 25.4554 16.7261C25.193 17.5335 25.0852 18.3872 25.1381 19.2384C25.9673 19.2473 26.7876 19.0591 27.5372 18.688C28.2869 18.3169 28.9463 17.7725 29.4659 17.0959Z" fill="white"/>
<path d="M56.5607 37.9967H50.2318L48.7119 42.6958H46.0312L52.0259 25.3105H54.811L60.8057 42.6958H58.0793L56.5607 37.9967ZM50.8873 35.8284H55.904L53.4309 28.2022H53.3617L50.8873 35.8284Z" fill="white"/>
<path d="M73.7507 36.359C73.7507 40.2979 71.7373 42.8285 68.6988 42.8285C67.9291 42.8707 67.1636 42.685 66.49 42.2928C65.8164 41.9006 65.2619 41.3178 64.89 40.6109H64.8325V46.889H62.3477V30.0207H64.7529V32.1289H64.7986C65.1876 31.4255 65.7515 30.8456 66.4302 30.451C67.109 30.0564 67.8772 29.8619 68.6531 29.8881C71.7255 29.8881 73.7507 32.4311 73.7507 36.359ZM71.1967 36.359C71.1967 33.7928 69.9301 32.1057 67.9976 32.1057C66.0991 32.1057 64.8221 33.8283 64.8221 36.359C64.8221 38.9129 66.0991 40.6232 67.9976 40.6232C69.9301 40.6232 71.1967 38.9484 71.1967 36.359Z" fill="white"/>
<path d="M87.0749 36.359C87.0749 40.2978 85.0615 42.8285 82.023 42.8285C81.2533 42.8707 80.4879 42.685 79.8142 42.2928C79.1406 41.9006 78.5861 41.3177 78.2142 40.6109H78.1567V46.889H75.6719V30.0207H78.077V32.1289H78.1227C78.5118 31.4254 79.0756 30.8456 79.7544 30.451C80.4331 30.0564 81.2013 29.8619 81.9773 29.8881C85.0497 29.8881 87.0749 32.431 87.0749 36.359ZM84.5209 36.359C84.5209 33.7928 83.2543 32.1057 81.3218 32.1057C79.4233 32.1057 78.1463 33.8283 78.1463 36.359C78.1463 38.9129 79.4233 40.6232 81.3218 40.6232C83.2543 40.6232 84.5209 38.9484 84.5209 36.359H84.5209Z" fill="white"/>
<path d="M95.8835 37.8516C96.0676 39.5757 97.6671 40.7076 99.8529 40.7076C101.947 40.7076 103.454 39.5756 103.454 38.0211C103.454 36.6717 102.545 35.8637 100.393 35.31L98.2416 34.7672C95.1927 33.9961 93.7773 32.5031 93.7773 30.0805C93.7773 27.0809 96.2739 25.0205 99.819 25.0205C103.327 25.0205 105.733 27.0809 105.814 30.0805H103.305C103.155 28.3455 101.785 27.2983 99.7837 27.2983C97.782 27.2983 96.4123 28.3578 96.4123 29.9C96.4123 31.1291 97.2871 31.8524 99.4272 32.406L101.257 32.8763C104.663 33.7199 106.079 35.1527 106.079 37.6957C106.079 40.9482 103.604 42.9853 99.6688 42.9853C95.9866 42.9853 93.5005 40.996 93.3398 37.8515L95.8835 37.8516Z" fill="white"/>
<path d="M111.44 27.0205V30.0201H113.742V32.0805H111.44V39.0682C111.44 40.1537 111.901 40.6596 112.913 40.6596C113.186 40.6546 113.459 40.6345 113.731 40.5994V42.6474C113.276 42.7364 112.813 42.7767 112.35 42.7677C109.9 42.7677 108.944 41.8039 108.944 39.3457V32.0805H107.184V30.0201H108.944V27.0205H111.44Z" fill="white"/>
<path d="M115.074 36.3584C115.074 32.3703 117.317 29.8643 120.816 29.8643C124.325 29.8643 126.558 32.3703 126.558 36.3584C126.558 40.3574 124.337 42.8525 120.816 42.8525C117.295 42.8525 115.074 40.3574 115.074 36.3584ZM124.026 36.3584C124.026 33.6227 122.829 32.008 120.816 32.008C118.802 32.008 117.606 33.635 117.606 36.3584C117.606 39.1051 118.802 40.7074 120.816 40.7074C122.829 40.7074 124.026 39.1051 124.026 36.3584H124.026Z" fill="white"/>
<path d="M128.605 30.0206H130.975V32.178H131.033C131.193 31.5042 131.57 30.9087 132.1 30.4917C132.631 30.0746 133.282 29.8614 133.945 29.8879C134.231 29.8869 134.517 29.9195 134.796 29.985V32.4186C134.435 32.3029 134.057 32.2498 133.68 32.2614C133.319 32.2461 132.959 32.3127 132.625 32.4567C132.291 32.6008 131.99 32.8188 131.744 33.0959C131.498 33.3729 131.312 33.7024 131.2 34.0617C131.087 34.4211 131.049 34.8017 131.09 35.1776V42.6958H128.605L128.605 30.0206Z" fill="white"/>
<path d="M146.256 38.9725C145.922 41.2734 143.781 42.8525 141.043 42.8525C137.522 42.8525 135.336 40.382 135.336 36.4185C135.336 32.4428 137.533 29.8643 140.939 29.8643C144.288 29.8643 146.394 32.2732 146.394 36.1164V37.0078H137.844V37.165C137.805 37.6315 137.861 38.1014 138.008 38.5436C138.155 38.9858 138.391 39.3901 138.699 39.7297C139.007 40.0692 139.38 40.3363 139.794 40.5131C140.208 40.6899 140.654 40.7725 141.101 40.7553C141.688 40.8129 142.277 40.6705 142.781 40.3493C143.285 40.028 143.676 39.5452 143.896 38.9724L146.256 38.9725ZM137.856 35.1894H143.908C143.93 34.77 143.87 34.3503 143.73 33.9566C143.59 33.5629 143.374 33.2037 143.095 32.9017C142.816 32.5996 142.481 32.3611 142.11 32.2012C141.739 32.0413 141.34 31.9634 140.939 31.9725C140.534 31.9699 140.133 32.0513 139.759 32.212C139.384 32.3726 139.044 32.6093 138.757 32.9084C138.471 33.2075 138.243 33.563 138.089 33.9545C137.934 34.3461 137.855 34.7658 137.856 35.1895V35.1894Z" fill="white"/>
<path d="M50.8199 12.2236C51.1723 12.2063 51.5241 12.2666 51.8527 12.4008C52.1813 12.535 52.4793 12.74 52.7274 13.0025C52.9754 13.2651 53.168 13.5792 53.2927 13.9247C53.4174 14.2702 53.4713 14.6392 53.451 15.0079C53.465 15.3771 53.4052 15.7453 53.2754 16.089C53.1457 16.4326 52.9488 16.7441 52.6974 17.0035C52.4461 17.2629 52.1458 17.4645 51.8157 17.5953C51.4857 17.7262 51.1332 17.7834 50.7808 17.7634H48.9345V20.5771H47.6953V12.2236H50.8199ZM48.9344 16.6232H50.4935C51.5603 16.6232 52.1857 16.0442 52.1857 15.0079C52.1857 13.9483 51.5825 13.3693 50.4935 13.3693H48.9345L48.9344 16.6232Z" fill="white"/>
<path d="M54.6072 17.4223C54.5693 17.008 54.6146 16.59 54.7401 16.1951C54.8655 15.8002 55.0684 15.4371 55.3358 15.1292C55.6031 14.8212 55.929 14.5751 56.2925 14.4067C56.656 14.2383 57.049 14.1514 57.4465 14.1514C57.844 14.1514 58.2371 14.2383 58.6006 14.4067C58.964 14.5751 59.2899 14.8212 59.5572 15.1292C59.8246 15.4371 60.0275 15.8002 60.153 16.1951C60.2784 16.59 60.3237 17.008 60.2858 17.4223C60.3244 17.837 60.2797 18.2556 60.1545 18.6511C60.0294 19.0466 59.8266 19.4104 59.5592 19.719C59.2918 20.0276 58.9657 20.2741 58.6018 20.4429C58.238 20.6116 57.8445 20.6988 57.4465 20.6988C57.0486 20.6988 56.655 20.6116 56.2912 20.4429C55.9273 20.2741 55.6012 20.0276 55.3338 19.719C55.0664 19.4104 54.8636 19.0466 54.7385 18.6511C54.6133 18.2556 54.5686 17.837 54.6072 17.4223ZM59.0637 17.4223C59.0637 16.0558 58.4774 15.2567 57.4485 15.2567C56.4156 15.2567 55.8346 16.0558 55.8346 17.4223C55.8346 18.7998 56.4157 19.5927 57.4485 19.5927C58.4774 19.5927 59.0637 18.7943 59.0637 17.4223Z" fill="white"/>
<path d="M63.1701 19.5806H63.0813V20.5766H61.9375V11.8115H63.1258V15.2739H63.2198C63.3974 14.9252 63.6657 14.6363 63.9936 14.4406C64.3215 14.2449 64.6956 14.1503 65.0726 14.1679C66.5978 14.1679 67.5601 15.4182 67.5601 17.4218C67.5601 19.4186 66.5925 20.6805 65.0726 20.6805C64.6896 20.6981 64.3093 20.6048 63.9736 20.4107C63.638 20.2167 63.3599 19.9294 63.1701 19.5806ZM63.1035 17.4273C63.1101 18.7473 63.729 19.5635 64.7292 19.5635C65.7359 19.5635 66.3379 18.7589 66.3379 17.4218C66.3379 16.0956 65.7359 15.2856 64.7292 15.2856C63.7342 15.2856 63.1101 16.1072 63.1035 17.4273Z" fill="white"/>
<path d="M69.0014 12.4086C68.9922 12.2475 69.0295 12.0872 69.1083 11.9484C69.1872 11.8097 69.304 11.699 69.4436 11.6306C69.5833 11.5622 69.7393 11.5393 69.8916 11.5648C70.0438 11.5904 70.1852 11.6632 70.2974 11.7738C70.4097 11.8845 70.4876 12.0279 70.5212 12.1854C70.5547 12.343 70.5422 12.5075 70.4855 12.6576C70.4287 12.8076 70.3302 12.9364 70.2027 13.0272C70.0752 13.118 69.9246 13.1666 69.7705 13.1667C69.6719 13.172 69.5734 13.1563 69.4808 13.1207C69.3881 13.085 69.3034 13.0302 69.2315 12.9594C69.1597 12.8885 69.1023 12.8032 69.0627 12.7086C69.0232 12.614 69.0023 12.5119 69.0014 12.4086ZM69.1776 14.2728H70.362V20.5769H69.1776V14.2728Z" fill="white"/>
<path d="M77.3689 18.8751C77.2075 19.4513 76.8577 19.9496 76.3808 20.2831C75.9038 20.6165 75.3301 20.7637 74.76 20.6989C74.3634 20.7099 73.9692 20.6304 73.6048 20.4658C73.2405 20.3013 72.9147 20.0557 72.65 19.7461C72.3854 19.4365 72.1883 19.0703 72.0724 18.673C71.9565 18.2756 71.9246 17.8566 71.9788 17.445C71.926 17.0322 71.9585 16.6123 72.0741 16.2137C72.1898 15.8152 72.3858 15.4473 72.6491 15.135C72.9123 14.8227 73.2365 14.5733 73.5998 14.4036C73.9631 14.2339 74.357 14.1479 74.7548 14.1515C76.4301 14.1515 77.4407 15.3499 77.4407 17.3295V17.7636H73.1892V17.8333C73.1706 18.0647 73.1984 18.2975 73.2708 18.517C73.3431 18.7364 73.4585 18.9376 73.6094 19.1077C73.7604 19.2777 73.9437 19.4128 74.1474 19.5044C74.3512 19.5959 74.571 19.6419 74.7927 19.6393C75.0769 19.6751 75.3649 19.6215 75.6199 19.4854C75.875 19.3493 76.0856 19.1368 76.2251 18.8751L77.3689 18.8751ZM73.1892 16.8435H76.2303C76.2452 16.6319 76.2178 16.4194 76.1496 16.2196C76.0815 16.0198 75.9742 15.8371 75.8346 15.6833C75.6951 15.5295 75.5263 15.408 75.3392 15.3265C75.1521 15.2451 74.9508 15.2055 74.7482 15.2104C74.5427 15.2077 74.3388 15.2481 74.1484 15.3292C73.9581 15.4103 73.7851 15.5305 73.6398 15.6827C73.4946 15.8349 73.3798 16.016 73.3024 16.2154C73.225 16.4147 73.1865 16.6283 73.1892 16.8435H73.1892Z" fill="white"/>
<path d="M79.0352 14.2725H80.179V15.2391H80.2678C80.3959 14.9036 80.6222 14.6192 80.9143 14.4267C81.2063 14.2342 81.5492 14.1436 81.8935 14.1679C82.0715 14.1654 82.2492 14.1828 82.4236 14.2199V15.4477C82.2055 15.3989 81.9833 15.3737 81.7603 15.3725C81.5643 15.3541 81.3668 15.3787 81.1805 15.445C80.9942 15.5112 80.8232 15.6175 80.6784 15.7571C80.5337 15.8967 80.4184 16.0664 80.34 16.2554C80.2617 16.4444 80.2219 16.6484 80.2234 16.8545V20.5766H79.0352L79.0352 14.2725Z" fill="white"/>
<path d="M83.5977 19.7316L86.909 15.4243V15.3259H83.6198V14.2725H88.3303V15.181L85.0901 19.4247V19.5231H88.3643V20.5766H83.5977V19.7316Z" fill="white"/>
<path d="M99.5734 20.5766H98.3408L97.0964 15.9336H97.0024L95.7633 20.5766H94.5424L92.8828 14.2725H94.088L95.1665 19.0829H95.2553L96.4932 14.2725H97.6331L98.8709 19.0829H98.9649L100.038 14.2725H101.226L99.5734 20.5766Z" fill="white"/>
</g>
<defs>
<clipPath id="clip0">
<rect width="160" height="56" fill="white"/>
</clipPath>
</defs>
</svg>
