<svg width="39" height="39" viewBox="0 0 39 39" fill="none" xmlns="http://www.w3.org/2000/svg">
<path d="M29.5801 13.749C29.2646 13.749 29.0088 14.0048 29.0088 14.3203V18.7592C29.0855 19.6984 27.8672 23.0372 27.6408 23.9764H22.0087C20.9978 23.9764 20.1755 24.7988 20.1755 25.8096C20.1755 26.8204 20.9979 27.6428 22.0087 27.6428H26.5409L25.517 31.0557C25.4287 31.3501 25.1628 31.5478 24.8554 31.5478H14.1142C13.8068 31.5478 13.541 31.3501 13.4526 31.0557L12.4287 27.6429H16.9609C17.2765 27.6429 17.5322 27.3871 17.5322 27.0716C17.5322 26.7561 17.2765 26.5003 16.9609 26.5003H12.086L11.7938 25.5262C11.5913 24.8141 10.4758 25.1469 10.6994 25.8546C10.9754 26.7801 12.0623 30.3936 12.3583 31.384C12.5684 32.0848 13.158 32.5781 13.8659 32.6727V34.0337C13.8887 35.8092 16.5681 35.0696 17.6516 35.2143C17.7914 36.3051 17.0626 38.9798 18.8538 39.0001H20.1158C21.9087 38.978 21.1775 36.3051 21.318 35.2143C22.4032 35.0699 25.0813 35.8083 25.1037 34.0338C25.1037 34.0337 25.1037 32.6727 25.1037 32.6727C25.8116 32.5781 26.4012 32.0849 26.6113 31.3841C26.8974 30.4316 28.3639 25.5417 28.613 24.7119C28.8989 23.5434 30.2376 19.937 30.1514 18.7592V14.3203C30.1514 14.0048 29.8956 13.749 29.5801 13.749ZM20.1754 37.7979C20.2354 37.9271 18.8824 37.8284 18.8539 37.8576C18.821 37.8575 18.7943 37.8308 18.7943 37.7979V35.2143H20.1755V37.7979H20.1754ZM23.9612 34.0337C23.9393 34.1079 15.0347 34.1072 15.0084 34.0339C15.0084 34.0337 15.0084 32.6905 15.0084 32.6905H23.9612V34.0337ZM26.8836 26.5003H22.0086C21.6278 26.5003 21.318 26.1905 21.318 25.8097C21.318 25.4289 21.6278 25.1191 22.0086 25.1191H27.2979C27.2029 25.4361 26.9808 26.1763 26.8836 26.5003Z" fill="#F2F2F2"/>
<path d="M27.0566 6.30955H25.104V4.96641C25.0811 3.19092 22.4018 3.93047 21.3182 3.78574C21.1785 2.69504 21.9073 0.0203379 20.116 0H18.8541C17.0612 0.0220898 17.7923 2.69504 17.6519 3.78574C16.5666 3.93009 13.8885 3.19175 13.8661 4.96633V6.30955C11.4665 6.13732 8.96614 6.45496 8.81844 9.40479C8.81844 9.40464 8.81844 11.9285 8.81844 11.9285C8.81616 13.4638 8.82012 17.1845 8.81844 18.7592C8.74395 19.8993 9.73388 22.4615 10.014 23.5693C10.2206 24.2815 11.3312 23.9481 11.1084 23.2409C10.8834 22.3311 9.91235 19.7226 9.96194 18.8094H14.4374C14.753 18.8094 15.0087 18.5536 15.0087 18.2381C15.0087 17.9226 14.753 17.6668 14.4374 17.6668H9.96102V15.0237C11.5715 14.8842 14.9576 15.7526 15.0086 13.1905C14.9601 10.6294 11.5658 11.496 9.96102 11.3573C9.93855 9.73995 9.67317 7.55785 11.9136 7.45228C11.9135 7.45228 27.0566 7.45228 27.0566 7.45228C27.9345 7.45228 28.6787 8.03476 28.9236 8.8335H22.0089C21.6933 8.8335 21.4376 9.08928 21.4376 9.40479C21.4376 9.72029 21.6933 9.97608 22.0089 9.97608H29.009V12.0734C28.9981 12.8139 30.1626 12.8152 30.1516 12.0733C30.2363 9.5483 30.4178 6.48923 27.0566 6.30955ZM13.1755 12.4997C14.0712 12.4875 14.0714 13.8934 13.1755 13.881H9.9611V12.4997H13.1755ZM18.7944 1.20214C18.7344 1.07296 20.0875 1.1716 20.1159 1.14243C20.1489 1.1425 20.1756 1.16924 20.1756 1.20214V3.78567H18.7944V1.20214H18.7944ZM15.0087 6.30955V4.96633C15.0087 4.94531 15.0258 4.92824 15.0468 4.92824C15.0944 4.96702 23.9624 4.85474 23.9613 4.96625C23.9614 4.96633 23.9614 6.30955 23.9614 6.30955H15.0087Z" fill="#F2F2F2"/>
<path d="M25.7949 15.0235C26.5346 15.0343 26.5372 13.87 25.7948 13.8809H20.7472C20.0074 13.8701 20.0049 15.0344 20.7473 15.0235C20.7472 15.0235 25.7949 15.0235 25.7949 15.0235Z" fill="#F2F2F2"/>
<path d="M19.4861 22.5948C20.2263 22.6056 20.2282 21.4413 19.486 21.4522H15.7004C14.9602 21.4414 14.9583 22.6057 15.7004 22.5948C15.7003 22.5948 19.4861 22.5948 19.4861 22.5948Z" fill="#F2F2F2"/>
</svg>
