<svg xmlns="http://www.w3.org/2000/svg" viewBox="0 0 726.59 352.3"><defs><style>.a{fill:#2e4290;}.b{fill:#fff;}.c{fill:#2ab7c1;}</style></defs><path d="M57.65,402.73c.93-2.12,2.34-5.35,4.1-9.28,3.83-8.6,4.45-9.77,6.43-14.37,3-6.94,2.4-6.15,5.77-14.05,3.3-7.71,5-11.57,6.52-14.29,2.06-3.57,3.06-4.62,3.93-7.52.3-1,1.09-3.92,2.34-7.78A8.07,8.07,0,0,1,88.66,332a5.42,5.42,0,0,1,3.09-1.76,5.69,5.69,0,0,1,4,1.26c2,1.39,3,3.25,4,5.51,2.76,5.94,3.67,8.53,3.67,8.53.45,1.27,2.14,6.09,4.35,13.71,1.62,5.58,2.43,8.37,2.68,10.36a35.25,35.25,0,0,0,.83,4.35,13,13,0,0,0,.75,2.42c.41.93.68,1.19,1.09,2.09a12.47,12.47,0,0,1,.84,2.59c.7,3.09,1.79,6.07,2.67,9.11a52.66,52.66,0,0,0,4.6,10.87,1.89,1.89,0,0,0,1.25,0c1-.41,1.32-1.89,1.42-2.34,1.39-6.25,5.31-11.66,7.61-17.64,1.39-3.62,1.85-4.85,2.42-6.52.27-.77,1-2.88,2.26-7.19,2.18-7.35,3.26-11,3.51-12.45.5-2.89.56-4.66,2-6.6.86-1.16,1.62-1.58,2.09-3,.55-1.69-.09-2.35.66-4.1.34-.77.51-.73,1.43-2.42.74-1.38.69-1.51,1.08-2.18,1.22-2.08,2.27-1.71,3.51-3.59.43-.64.13-.42,1.59-3.59.76-1.66,1-2.13,1.59-2.34,1-.4,2.23.34,2.84.92a4.52,4.52,0,0,1,1.25,3.25c.05,1.8-.73,2.51-1.75,5a27.85,27.85,0,0,0-1.59,5.68c-.57,3-.24,3.51-.75,6.11a29,29,0,0,1-1.84,5.68c-.67,1.68-3.06,7.63-4.51,11.62-2,5.41-3,8.11-3.43,11.45a53.17,53.17,0,0,1-.92,6.6,44.32,44.32,0,0,1-2.59,7.19s-2.25,5.54-4.68,12.37c-1.92,5.38-2.19,6.7-2.34,7.61a24.3,24.3,0,0,1-.84,3.84c-.52,1.64-.88,2.09-1.17,3.34a10.49,10.49,0,0,0-.08,4.1,39.48,39.48,0,0,1-6.27,2.68,4,4,0,0,1-1.76.16c-1.32-.18-2.3-1.07-3.42-2.42a23.94,23.94,0,0,1-3.26-5c-1.82-4.07-2.93-7.39-3.35-8.61-2.18-6.4-2.55-5.79-5.09-13.12a72.72,72.72,0,0,1-2.6-8.36,66.35,66.35,0,0,0-1.58-6.93,32.66,32.66,0,0,0-2.51-5.77,34.49,34.49,0,0,0-.42-4.18,40,40,0,0,0-1.75-6.52c-1.55-4.59-1.81-4.13-2.93-7.61-1.27-3.95-1.43-6.1-2.51-6.27-.64-.09-1.27.57-2.09,1.68-2.38,3.25-3.36,6.37-4.59,10.28-1.63,5.13-2,6.15-2.51,7.6-1,2.72-1.92,4.76-2.26,5.52-1.51,3.37-2.42,4.83-4.68,9.19-1.36,2.63-2.76,5.44-3.51,7a76.15,76.15,0,0,0-5.18,15l-3.85,4.59a5.21,5.21,0,0,1-2.42-.33,6.34,6.34,0,0,1-2.51-2.09,9.72,9.72,0,0,1-2.42-4.43A7.6,7.6,0,0,1,57.65,402.73Z" transform="translate(-57.65 -119.57)"/><path d="M188.48,401.49c1-.28,1.5-1.66,1.86-2.78a5.25,5.25,0,0,0,.2-3.6,4.58,4.58,0,0,0-.82-1.3c-2.33-3-2-3.75-3.43-5a8.32,8.32,0,0,0-3.82-1.67,14.46,14.46,0,0,0-5.23-.13,26.71,26.71,0,0,0-7,1.84,38.44,38.44,0,0,0-10.71,7.3,24,24,0,0,1-2.66,2.21,25.85,25.85,0,0,0-3.13,2.15,7.38,7.38,0,0,0-1.94,2.51,6.76,6.76,0,0,0-.51,2.51c-.32,6.46-.58,5.94-.38,7.16a13.89,13.89,0,0,0,2.48,5.92,15.27,15.27,0,0,0,6,4.54,13.09,13.09,0,0,0,4.78,1.68,13.42,13.42,0,0,0,7.52-1.77c.8-.39,2.48-1.57,5.86-3.89.81-.57,1.65-1.08,2.46-1.65,1.59-1.1,1.88-1.39,2.61-1.59a6.13,6.13,0,0,1,3,.1,11,11,0,0,1,3.59,1.44c4.52,2.57,5.21,1.37,9.56,3.89a16.74,16.74,0,0,0,4.15,1.56c1.08.26,1.76.3,2.29-.06s.62-.93,1-2.17a9.69,9.69,0,0,0,.47-2.84,8.82,8.82,0,0,0-.2-1.8c-.48-.25-1.17-.61-2-1.06-1.9-1.06-3.36-2-5-3.06-3.93-2.53-5.9-3.8-7.18-4.77-1.43-1.08-3-1.91-4.43-3a5.1,5.1,0,0,0-1.76-1,5.17,5.17,0,0,0-3,.09,20.5,20.5,0,0,0-7.06,2.58c-1.68,1-7,4.56-9.66,5.66a3.68,3.68,0,0,1-1.86.27c-.2,0-1.62-.21-2-1.13a1.85,1.85,0,0,1,.14-1.37c1.64-3.69,7.68-7.2,7.68-7.2a18.5,18.5,0,0,1,5.65-2.58,12.7,12.7,0,0,1,6.07-.07,26,26,0,0,1,4.47,1.45C187.33,401.32,187.84,401.66,188.48,401.49Z" transform="translate(-57.65 -119.57)"/><path d="M215.9,383.11a4.32,4.32,0,0,1,1.65-2.66,3.86,3.86,0,0,1,2.55-.55c5.53-.89,11.52-1.63,17.91-2.1,4.39-.33,8.6-.5,12.61-.55a6.86,6.86,0,0,1,3,1.1,7.17,7.17,0,0,1,2.88,4.2c.38,1.49.31,3.28-1.33,6.86a36.73,36.73,0,0,1-5.86,9,75.24,75.24,0,0,1-11.17,10.06c-1.05.83-5,3.87-5,3.87a1.87,1.87,0,0,0,.33,1.22,2.14,2.14,0,0,0,2.32.66c3.21,0,6.53,0,9.95-.11a200.15,200.15,0,0,0,24.66-2.43,7.81,7.81,0,0,1,3.76.11,4.78,4.78,0,0,1,2.88,1.66,4.58,4.58,0,0,1,.11,4.53,5.45,5.45,0,0,1-4.09,2.76c-6.32,1.34-11.77,2.25-16,2.88a237.21,237.21,0,0,1-25.1,2.43c-4.77.18-8.79.17-11.72.11-1.47-1.2-2.66-2.27-3.54-3.09-2.14-2-2.48-2.55-2.65-3.21-.34-1.25.09-2.34.77-4a19.18,19.18,0,0,1,3-5,27.5,27.5,0,0,1,6-5.08c4.56-3.16,4.93-2.85,9.07-5.75a80.45,80.45,0,0,0,6.63-6.2c.67-.65,2-2,1.77-3.43a2,2,0,0,0-.66-1.21,2.54,2.54,0,0,0-2.33-.33c-7.93.75-13.43,1.34-15.59,1.77a7.4,7.4,0,0,1-3,0,4.81,4.81,0,0,1-2.55-1.22A4.36,4.36,0,0,1,215.9,387,7,7,0,0,1,215.9,383.11Z" transform="translate(-57.65 -119.57)"/><path d="M342.15,393.5a12.21,12.21,0,0,1,2.6-4.61c1.08-1.33,2-2.4,2.91-2.26.5.08.61.43,1.82,1a5,5,0,0,0,1.52.54c1.33.11,2.45-1.39,3-2,.83-1,2.81-2,6.78-4a31.87,31.87,0,0,1,8.51-3.36,27.6,27.6,0,0,1,9.54-.08c4.55.55,4.23,1.2,10.59,2.53,6.18,1.3,12,1.84,15.07,3.58a14,14,0,0,0,2.79,1.39c1.89.68,2.46.41,3.15,1.08a3.79,3.79,0,0,1,.41,4.24,4.4,4.4,0,0,1-1.19,1.25,8,8,0,0,1-2.75,1.5,1.38,1.38,0,0,0-1.26-1.08,1.41,1.41,0,0,0-1.39.92c-1.51-.12-3.85-.34-6.71-.75-7.31-1-9.59-2.13-16.22-2.87-4.09-.46-6.13-.69-8.73-.32a24.19,24.19,0,0,0-11.15,4.64,24.83,24.83,0,0,0-6.46,7.8,25.33,25.33,0,0,0-2.72,8.37,2,2,0,0,0-1.16.81,2.07,2.07,0,0,0-.22,1.76c-.18,1.11-.31,2-.39,2.75-.43,3.57-.3,4.91-1.37,6.12a4.45,4.45,0,0,1-1.39,1,5.41,5.41,0,0,1-3.56.22,6.27,6.27,0,0,1-3.76-1.89c-.37-.42-1.1-1.42-1.28-4.51a28.89,28.89,0,0,1,.64-6.83c.83-5.17.91-5,1.24-7.57.36-2.71.53-4.07.68-5.72A17.31,17.31,0,0,1,342.15,393.5Z" transform="translate(-57.65 -119.57)"/><path d="M456.35,398.08c2.27-11.28,3.41-16.92,5-22.39,1.29-4.28,4-12.55,4.28-14.87a5.8,5.8,0,0,1,.53-2c.45-.91.84-1,1.29-2.05a3.38,3.38,0,0,0,.41-1.81c-.08-.69-.39-.87-.41-1.52A2.65,2.65,0,0,1,468,352c.85-1.47.44-1.93,1.4-4.22a17.87,17.87,0,0,1,2.23-3.8,16.8,16.8,0,0,1,2.34-2.46,2.66,2.66,0,0,1,1.29-.71,2.38,2.38,0,0,1,1.46.24c.92.48,1.17,1.53,1.64,3.34,1.07,4,1.05,3.33,1.18,4.21a19,19,0,0,1-.53,7,44.37,44.37,0,0,1-2.05,6.56c-2.53,6.81-4.38,11.89-5.27,17.81-.3,2-.42,3.58-.47,4.51a6,6,0,0,0-2.11,4.51c0,.07-1,5.42-3.05,16.11-1.42,7.5-2.13,11.25-2.22,11.59-.18.7-1.16,4.36-.94,5.63a2.06,2.06,0,0,1-.06,1.05,2.17,2.17,0,0,1-.64.94,24.68,24.68,0,0,1-5.16,2.87,18.43,18.43,0,0,0-1.52-2.93c-1-1.56-1.63-2.06-1.7-3.16-.05-.79.26-.86.53-2.23a15.82,15.82,0,0,0,.12-3.51c0-1.29.08-2.58.11-3.87A104.17,104.17,0,0,1,456.35,398.08Z" transform="translate(-57.65 -119.57)"/><path d="M495.92,362.22c1.87-1.36,2.32-1.36,4.72-3,2.22-1.47,2-1.6,3.84-2.81a50.5,50.5,0,0,1,7-3.67c4.5-2.14,4.17-1.9,5.46-2.56a72.17,72.17,0,0,0,9.13-6.06,86.16,86.16,0,0,1,9.21-5.11,2.88,2.88,0,0,1,2.13-.34,3.21,3.21,0,0,1,1.71,1.7,8.19,8.19,0,0,1,.76,3.16c.26,2.18.38,3.27-.08,4.35a6.12,6.12,0,0,1-1.45,2,9.71,9.71,0,0,1-2.47,1.7c-1.4.76-2.66,1.74-4,2.56-3.64,2.22-5.21,3.67-10.92,7.42-4.24,2.79-4.35,2.63-8.27,5.29-3.37,2.28-3.42,2.48-6.23,4.35-3.94,2.61-4.16,2.43-8.87,5.46-1,.66-3.47,2.68-8.36,6.74a5.82,5.82,0,0,0-2,2.9,5.17,5.17,0,0,0-.08,2.3c.41,2,2.16,3.3,3.58,4.26a53.17,53.17,0,0,0,8.1,4.78c4.81,2,6.05,2,13.05,4.27,10.4,3.4,8.62,3.72,11.52,4.09a21,21,0,0,1,7.59,2.9A2.68,2.68,0,0,1,532,410.1a3.61,3.61,0,0,1-.34,2.9,6.44,6.44,0,0,1-2.82,2.82c-1.54.82-3,.84-5.71.85a25.08,25.08,0,0,1-7.42-.85c-1.84-.53-2-.82-4.18-1.45a33.64,33.64,0,0,0-5.12-1c-3.6-.5-6.58-2-11.34-4.35a57.88,57.88,0,0,1-11.26-7c-4.33-3.48-7-5.61-7.93-8.7-.2-.62-.86-3-2.05-6.48l-.6-1.71a5.28,5.28,0,0,0,1.11-1.7c.44-1.1.24-1.74.68-2.73a5,5,0,0,1,1.37-1.71c3.84-3.46,5.76-5.19,6.65-5.88,3.84-3,3.89-2.83,5.37-4.18s1.65-1.66,3.59-3.41A39.55,39.55,0,0,1,495.92,362.22Z" transform="translate(-57.65 -119.57)"/><path d="M590,392.84c-.36-1.19-1.29-2.37-3.14-4.67-2.33-2.89-3.49-4.34-4.76-5.24a15.13,15.13,0,0,0-6.39-2.38c-1.17-.22-4.7-.79-11.62.48-5.45,1-8.87,1.62-13,4a25.29,25.29,0,0,0-8.77,8,24.64,24.64,0,0,0-3.62,8.76,12.61,12.61,0,0,0,0,5.62c.39,1.63,1.38,3.18,3.34,6.2s2.88,4.44,4.09,5.33c1.48,1.1,1.87.79,4.58,2.38,2.37,1.4,2.58,1.94,4.28,3a20.35,20.35,0,0,0,7,2.38,37.47,37.47,0,0,0,9,.47c1.8-.05,3.3-.17,4.38-.28a16.8,16.8,0,0,1,1.9-2.19,7,7,0,0,1,1.91-1.53c.8-.34,1.26-.23,2-.76.33-.24.79-.56.86-1.05,0-.19,0-.78-1.15-1.71a9,9,0,0,0-4.28-1.72c-2.84-.29-5.64-.86-8.48-1.14a62.55,62.55,0,0,1-10.77-2.1c-3.53-1-5.59-2-6.19-3.71,0-.14-.54-1.62.1-2.19.46-.41,1.3-.16,1.52-.1s6.17,0,18.1-.28c14-.27,12.4-1.51,14.67-1.24a3.53,3.53,0,0,0,2.67-.57,3,3,0,0,0,.86-1.62,35.31,35.31,0,0,0,.85-6.29C590.15,393.44,590.22,393.43,590,392.84Zm-11,3.81a3.18,3.18,0,0,1-1,1.81,3.27,3.27,0,0,1-2.66.57l-22.58.1a5.32,5.32,0,0,1,.38-2.77c.23-.51.93-1.85,3.91-3.23a22.66,22.66,0,0,1,5.9-1.62,70.94,70.94,0,0,1,7.72-1.15c3.88-.32,5.09-.06,6.1.67a6,6,0,0,1,1.81,2.29A4.9,4.9,0,0,1,579,396.65Z" transform="translate(-57.65 -119.57)"/><path d="M661.22,385.7a17.64,17.64,0,0,0-7.29-7.21c-2.39-1.26-4.57-1.57-8.85-2.14a59.34,59.34,0,0,0-12.74-.52c-3.73.27-7.53,0-11.22.61a6.21,6.21,0,0,1-3.37-.33,3.61,3.61,0,0,1-1.82-1.4,3.9,3.9,0,0,1-.2-2.85c.43-2.08.66-4.2,1.08-6.28a50.37,50.37,0,0,0,.53-7.2c.17-4.6-.14-4.15.11-6.5a28.19,28.19,0,0,1,1.62-7.95c.6-1.53,1.18-2.51,1-4.09a11.92,11.92,0,0,0-1.3-3.44c-.64-1.38-.45-.76-2.93-4.95-.47-.79-.74-1.25-1.24-1.34-.67-.11-1.31.52-2.55,1.81a9,9,0,0,0-1.76,2.13,9.33,9.33,0,0,0-.72,3.3c-.18,1.3,0-.28-.68,3.77-1.16,7.05-1.75,11.49-1.75,11.49-.41,3.05-1.1,8.2-1.7,15-.32,3.63-.59,7.51-.79,11.61a12.36,12.36,0,0,1-3.65,3.7,2.94,2.94,0,0,0-1.25,1.24c-.16.35-.36,1.05.31,2.94a16.47,16.47,0,0,0,2,3.77c1.5,2.24,1.68,2,2.12,2.91.55,1.15.39,1.81.14,6-.3,5.06,0,3.37-.27,6.9a8.42,8.42,0,0,0,0,3.05,11.25,11.25,0,0,0,2.49,4.12c.76.8,1.42,1.26,1.38,2,0,.34-.16.66-.76,1.3-1.4,1.47-2.32,1.51-3.71,2.84-.77.74-1.24,1.2-1.3,1.91-.08.94.59,1.71,1.43,2.67a7.78,7.78,0,0,0,2.35,2c1.81.86,3.8,0,5.77-.7a113.61,113.61,0,0,1,12.16-3.55c2.25-.57,4.37-1.58,6.63-2.1a5.51,5.51,0,0,0,4.07-3.15,6.67,6.67,0,0,0,2,0,6.81,6.81,0,0,0,2.79-1.06c3.4-2.12,4.45-1.85,9-5a43.19,43.19,0,0,0,9.52-8.41c2.86-3.5,5.11-6.25,5.19-10.21A13.25,13.25,0,0,0,661.22,385.7Zm-8.39,6.81a12.12,12.12,0,0,1-3.83,5.24,92.16,92.16,0,0,1-12.35,7.47c-5.31,2.88-7.1,3.95-9.94,5.21a45.61,45.61,0,0,0-4.63,2.05,13.17,13.17,0,0,1-3.8,1.7,9.16,9.16,0,0,1-2.66.19c-.15-.72-.4-1.84-.8-3.19-.5-1.66-.77-2.17-1-3.17a12.49,12.49,0,0,1,0-4.3c.69-7.14.76-6.45.78-7.7.06-3.16-.44-4,.36-5.75a5.4,5.4,0,0,1,2.47-2.76c.68-.31,1-.21,4.37-.31a19.71,19.71,0,0,0,3.33-.24,16.41,16.41,0,0,0,3-1c1.43-.5,2.5-.46,5.91-.23,6.24.42,8.53.68,10.57,1a23.57,23.57,0,0,1,5.36,1.43c1.85.74,2.71,1.35,3,2.27A3.15,3.15,0,0,1,652.83,392.51Z" transform="translate(-57.65 -119.57)"/><path d="M324.08,403c1.06-.13,1.71-1.43,2.24-2.48A5.23,5.23,0,0,0,327,397a4.63,4.63,0,0,0-.61-1.41c-1.88-3.26-1.42-4-2.68-5.42a8.5,8.5,0,0,0-3.55-2.21A14.58,14.58,0,0,0,315,387a26.29,26.29,0,0,0-7.23.81,38.59,38.59,0,0,0-11.64,5.68,23.73,23.73,0,0,1-3,1.81A26.53,26.53,0,0,0,289.8,397a7.43,7.43,0,0,0-2.28,2.21,6.89,6.89,0,0,0-.87,2.41c-1.24,6.35-1.42,5.79-1.4,7a13.8,13.8,0,0,0,1.6,6.22,15.47,15.47,0,0,0,5.29,5.36,11.42,11.42,0,0,0,12.18,1.67c.86-.27,2.69-1.2,6.36-3,.88-.44,1.79-.83,2.68-1.27,1.72-.86,2.05-1.11,2.81-1.21a6.18,6.18,0,0,1,2.94.54,11,11,0,0,1,3.35,1.94c4.1,3.19,5,2.1,8.9,5.22a16.82,16.82,0,0,0,3.88,2.14c1,.41,1.7.55,2.28.27s.74-.83,1.27-2a9.91,9.91,0,0,0,.87-2.74,9,9,0,0,0,.06-1.81c-.44-.32-1.07-.78-1.8-1.34-1.74-1.32-3.05-2.44-4.55-3.75-3.53-3.07-5.3-4.61-6.43-5.75s-2.71-2.33-3.95-3.62a4.85,4.85,0,0,0-1.6-1.2,5.19,5.19,0,0,0-2.95-.34,20.67,20.67,0,0,0-7.36,1.54c-1.8.76-7.56,3.51-10.37,4.22a3.83,3.83,0,0,1-1.88,0c-.2-.05-1.57-.44-1.8-1.41a1.76,1.76,0,0,1,.33-1.33c2.15-3.42,8.63-6,8.63-6,2.66-1.06,4-1.6,6-1.74a12.71,12.71,0,0,1,6,.81,26.82,26.82,0,0,1,4.22,2.07C323,402.62,323.42,403,324.08,403Z" transform="translate(-57.65 -119.57)"/><path d="M783,390.31a17.72,17.72,0,0,0-6.39-8c-2.22-1.53-4.35-2.1-8.53-3.17a58.86,58.86,0,0,0-12.58-2c-3.74-.18-7.48-.9-11.22-.73a6.2,6.2,0,0,1-3.3-.73,3.56,3.56,0,0,1-1.64-1.61,3.94,3.94,0,0,1,.13-2.85c.68-2,1.17-4.09,1.82-6.11a46.64,46.64,0,0,0,1.39-7.09c.72-4.54.36-4.14.89-6.44a28.24,28.24,0,0,1,2.56-7.7c.77-1.44,1.46-2.35,1.53-3.93a11.87,11.87,0,0,0-.88-3.57c-.47-1.44-.36-.81-2.32-5.26-.38-.84-.59-1.34-1.08-1.48s-1.35.36-2.74,1.48a9.28,9.28,0,0,0-2,1.91,9.44,9.44,0,0,0-1.11,3.19c-.33,1.27,0-.28-1.13,3.67-2,6.85-3.11,11.2-3.11,11.2-.77,3-2.06,8-3.47,14.71-.75,3.56-1.48,7.38-2.17,11.43a12.74,12.74,0,0,1-4.07,3.24,2.89,2.89,0,0,0-1.39,1.08c-.2.33-.48,1,0,2.95a15.76,15.76,0,0,0,1.52,4c1.22,2.41,1.43,2.18,1.76,3.14.41,1.21.17,1.85-.58,6-.9,5-.43,3.34-1.09,6.82a8.26,8.26,0,0,0-.33,3,11.4,11.4,0,0,0,2,4.39c.66.89,1.26,1.41,1.13,2.15-.05.33-.24.64-.91,1.2-1.57,1.29-2.49,1.22-4,2.38-.84.64-1.36,1-1.51,1.74-.2.92.38,1.76,1.1,2.82a7.91,7.91,0,0,0,2.09,2.29c1.7,1.08,3.77.48,5.81,0a112.42,112.42,0,0,1,12.5-2.06c2.3-.3,4.53-1.06,6.84-1.3a5.84,5.84,0,0,0,2.61-.83,5.71,5.71,0,0,0,1.81-1.82,6.48,6.48,0,0,0,2,.29,6.87,6.87,0,0,0,2.9-.72c3.62-1.7,4.64-1.3,9.54-3.93a43.29,43.29,0,0,0,10.45-7.22c3.26-3.13,5.82-5.59,6.37-9.52A13.3,13.3,0,0,0,783,390.31Zm-9.15,5.75a12.08,12.08,0,0,1-4.43,4.75,92.32,92.32,0,0,1-13.16,5.95c-5.61,2.22-7.51,3.06-10.49,4a47.72,47.72,0,0,0-4.84,1.48,13.08,13.08,0,0,1-4,1.24,9.13,9.13,0,0,1-2.66-.13c-.06-.74-.18-1.88-.42-3.26-.29-1.71-.51-2.25-.6-3.27a12.29,12.29,0,0,1,.49-4.27c1.54-7,1.53-6.31,1.7-7.55.43-3.13,0-4.06,1-5.67a5.44,5.44,0,0,1,2.79-2.44c.71-.23,1-.1,4.38.21a20.14,20.14,0,0,0,3.33.16,16.33,16.33,0,0,0,3.08-.62c1.47-.32,2.53-.16,5.89.48,6.14,1.16,8.39,1.7,10.38,2.21a23.91,23.91,0,0,1,5.15,2.06c1.75.95,2.53,1.67,2.74,2.61A3.2,3.2,0,0,1,773.89,396.06Z" transform="translate(-57.65 -119.57)"/><path d="M706.89,403.5c1.06-.13,1.71-1.42,2.24-2.48a5.29,5.29,0,0,0,.71-3.53,4.64,4.64,0,0,0-.62-1.41c-1.88-3.26-1.42-4-2.68-5.42a8.43,8.43,0,0,0-3.55-2.21,14.58,14.58,0,0,0-5.15-.87,26.35,26.35,0,0,0-7.23.81A38.59,38.59,0,0,0,679,394.07a23,23,0,0,1-3,1.81,26.53,26.53,0,0,0-3.41,1.67,7.41,7.41,0,0,0-2.27,2.21,6.51,6.51,0,0,0-.87,2.41c-1.25,6.35-1.43,5.79-1.41,7a13.9,13.9,0,0,0,1.61,6.22,15.37,15.37,0,0,0,5.28,5.36,11.44,11.44,0,0,0,12.18,1.67c.86-.27,2.69-1.19,6.36-3,.89-.44,1.79-.83,2.68-1.27,1.72-.86,2.05-1.11,2.81-1.21a6.16,6.16,0,0,1,2.94.54,11,11,0,0,1,3.35,1.94c4.11,3.19,5,2.1,8.9,5.22a16.82,16.82,0,0,0,3.88,2.14c1,.41,1.7.55,2.28.27s.75-.83,1.27-2a9.49,9.49,0,0,0,.87-2.74,9.08,9.08,0,0,0,.07-1.81c-.45-.32-1.07-.78-1.81-1.34-1.73-1.32-3.05-2.44-4.55-3.75-3.53-3.07-5.29-4.61-6.43-5.75s-2.71-2.33-3.94-3.62a5,5,0,0,0-1.61-1.2,5.18,5.18,0,0,0-3-.34,20.67,20.67,0,0,0-7.36,1.54c-1.8.76-7.56,3.51-10.37,4.22a3.78,3.78,0,0,1-1.87,0c-.21,0-1.58-.44-1.81-1.41a1.76,1.76,0,0,1,.33-1.33c2.15-3.42,8.64-6,8.64-6,2.65-1.06,4-1.6,6-1.74a12.76,12.76,0,0,1,6,.81,26.27,26.27,0,0,1,4.21,2.07C705.77,403.16,706.23,403.58,706.89,403.5Z" transform="translate(-57.65 -119.57)"/><path d="M350.64,470.92V467.5a.56.56,0,0,1,.13-.35L362,453.32a.55.55,0,0,0-.43-.9h-9a.55.55,0,0,1-.55-.55V449.1a.55.55,0,0,1,.55-.56h15.68a.56.56,0,0,1,.55.56v2.84a.55.55,0,0,1-.12.35L357,466.71a.55.55,0,0,0,.43.9h11.33a.56.56,0,0,1,.56.56v2.75a.56.56,0,0,1-.56.56H351.2A.56.56,0,0,1,350.64,470.92Zm7.56-24.35v-3.06a.55.55,0,0,1,.55-.55H362a.56.56,0,0,1,.56.55v3.06a.56.56,0,0,1-.56.55h-3.21A.55.55,0,0,1,358.2,446.57Z" transform="translate(-57.65 -119.57)"/><path d="M389.49,460.15a14.52,14.52,0,0,1,1.05-5.88,10.65,10.65,0,0,1,2.14-3.15,9.06,9.06,0,0,1,3-2.06,12.51,12.51,0,0,1,4.94-.91,10.78,10.78,0,0,1,8.12,3.15c2,2.09,3,5,3,8.74s-1,6.6-3,8.69a10.68,10.68,0,0,1-8.07,3.14,10.82,10.82,0,0,1-8.14-3.12Q389.5,465.63,389.49,460.15Zm4.77-.16q0,3.9,1.8,5.91a6.2,6.2,0,0,0,9.12,0q1.77-2,1.77-6c0-2.63-.57-4.59-1.73-5.88a6.4,6.4,0,0,0-9.2,0C394.85,455.38,394.26,457.36,394.26,460Z" transform="translate(-57.65 -119.57)"/><path d="M433.6,470.54V449.48a.94.94,0,0,1,.94-.94h8.8a16.74,16.74,0,0,1,5.35.62,5.24,5.24,0,0,1,2.66,2.2,6.58,6.58,0,0,1,1,3.61,6.17,6.17,0,0,1-1.52,4.27,6.57,6.57,0,0,1-3.25,1.85.55.55,0,0,0-.19,1,9.19,9.19,0,0,1,1.38,1.21,26.82,26.82,0,0,1,2.64,3.72l1.9,3a.94.94,0,0,1-.8,1.44h-3.34a.94.94,0,0,1-.78-.42l-3.07-4.57a31,31,0,0,0-2.44-3.37,3.5,3.5,0,0,0-1.39-1,7.7,7.7,0,0,0-2.33-.26h0a.94.94,0,0,0-.94.94v7.7a.94.94,0,0,1-.94.94h-2.75A.94.94,0,0,1,433.6,470.54Zm4.63-13.24a.94.94,0,0,0,.94.94h2.49a17.63,17.63,0,0,0,4.16-.28,2.48,2.48,0,0,0,1.29-1,2.93,2.93,0,0,0,.47-1.72,2.75,2.75,0,0,0-.61-1.87,2.93,2.93,0,0,0-1.75-.9c-.37-.05-1.5-.08-3.38-.08h-2.67a.94.94,0,0,0-.94.94Z" transform="translate(-57.65 -119.57)"/><path d="M479.78,470.54V462.1a1,1,0,0,0-.14-.51L472.29,450a.94.94,0,0,1,.8-1.44h3.19a1,1,0,0,1,.81.46l4.3,7.25a.94.94,0,0,0,1.62,0l4.22-7.23a.92.92,0,0,1,.81-.47h3.09a.94.94,0,0,1,.79,1.44l-7.37,11.65a.89.89,0,0,0-.15.5v8.41a.94.94,0,0,1-.94.94h-2.74A.94.94,0,0,1,479.78,470.54Z" transform="translate(-57.65 -119.57)"/><rect x="92.67" y="337.36" width="187.66" height="6.17" rx="1.89"/><rect x="447.08" y="337.36" width="187.66" height="6.17" rx="1.89"/><path d="M421,331.55q-1.19,0-2.37,0c-23.21-.58-45-9.49-63-25.75-16.27-14.7-28-34.62-32.06-54.66-2-9.65-5.21-34.7,7.38-58.77,11.29-21.56,31.43-35.35,43.46-43.6l4.47-3,39.29-26.19,1.6.5a149.35,149.35,0,0,1,43.35,21.67c39.86,29,59.34,60.84,57.88,94.71C519,281.43,477.5,331.55,421,331.55Z" transform="translate(-57.65 -119.57)"/><path class="a" d="M510.86,235.57c-1.81,42-41.05,86.68-92,85.4-44.28-1.11-78.08-36.51-85.4-72.26-1.3-6.36-5.28-29.91,6.57-52.55,10.13-19.36,28.7-32.08,39.41-39.42.45-.31.34-.23,19.71-13.14l19.71-13.14a136,136,0,0,1,39.41,19.71C469.79,158.52,512.83,189.8,510.86,235.57Z" transform="translate(-57.65 -119.57)"/><path class="b" d="M477.71,246c-1.14,26.43-25.85,54.58-57.91,53.77-27.88-.7-49.17-23-53.77-45.5-.82-4-3.33-18.83,4.13-33.09C376.54,209,388.24,201,395,196.4l12.41-8.27,12.41-8.28a85.81,85.81,0,0,1,24.82,12.41C451.85,197.52,479,217.21,477.71,246Z" transform="translate(-57.65 -119.57)"/><circle class="c" cx="361.05" cy="137.9" r="28.22"/><circle cx="357.53" cy="148.48" r="10.58"/></svg>